<svg height="491pt" viewBox="-29 0 491 491.312" width="491pt" xmlns="http://www.w3.org/2000/svg"><path d="m152.15625 179.3125c0 4.417969-3.582031 8-8 8s-8-3.582031-8-8 3.582031-8 8-8 8 3.582031 8 8zm0 0"/><path d="m232.15625 179.3125c0 4.417969-3.582031 8-8 8s-8-3.582031-8-8 3.582031-8 8-8 8 3.582031 8 8zm0 0"/><path d="m395.46875 179.3125h-14.625l-20.6875 20.6875v14.625l.6875.6875-24.6875 24.6875-12.6875-12.6875h-14.625l-20.6875 20.6875v14.625l4.6875 4.6875-44.34375 44.351562-8.34375-2.382812v-24.9375c13.175781-12.9375 21.878906-30.375 23.632812-49.808594 18.414063-3.574218 32.367188-19.78125 32.367188-39.222656v-42.222656c4.757812-2.777344 8-7.882813 8-13.777344v-16c0-4.886719-2.25-9.214844-5.71875-12.160156l16.71875-41.800782-43-8.589843v-44.554688l-53.839844 17.945313-34.160156-34.152344-34.160156 34.160156-53.839844-17.953125v44.546875l-43 8.589844 8.023438 20.054688c-9.878907-8.734376-22.824219-14.085938-37.023438-14.085938h-24v8c0 20.382812 10.984375 38.199219 27.304688 48-16.320313 9.800781-27.304688 27.617188-27.304688 48v8h24c20.382812 0 38.199219-10.984375 48-27.304688v35.304688c0 19.441406 13.953125 35.648438 32.367188 39.230469 1.753906 19.433593 10.457031 36.871093 23.632812 49.808593v24.9375l-71.382812 20.390626c-23.914063 6.816406-40.617188 28.960937-40.617188 53.832031v107.800781h336v-107.800781c0-19.328125-10.152344-36.894531-25.863281-47.023438l17.863281-17.863281 4.6875 4.6875h14.625l20.6875-20.6875v-14.625l-12.6875-12.6875 24.6875-24.6875.6875.6875h14.625l20.6875-20.6875v-14.625zm-315.3125-48v-8h208l.007812 16h-208.007812zm184 24h16v8.207031c-4.671875-3.535156-10.054688-6.183593-16-7.390625zm-160 0v.808594c-5.945312 1.214844-11.328125 3.855468-16 7.390625v-8.199219zm16 0h128v48h-128zm144 62.527344v-45.046875c9.289062 3.3125 16 12.109375 16 22.527343 0 10.414063-6.710938 19.207032-16 22.519532zm-152-143.976563v-35.449219l42.160156 14.058594 29.839844-29.847656 29.839844 29.839844 42.160156-14.050782v35.457032l37 7.410156-10.417969 26.03125h-197.167969l-10.414062-26.039062zm-95.191406 17.449219h7.191406c19.320312 0 35.480469 13.765625 39.191406 32h-7.191406c-19.320312 0-35.480469-13.769531-39.191406-32zm7.191406 80h-7.191406c3.710937-18.234375 19.878906-32 39.191406-32h7.191406c-3.710937 18.230469-19.871094 32-39.191406 32zm64 24c0-10.417969 6.710938-19.214844 16-22.527344v45.046875c-9.289062-3.304687-16-12.105469-16-22.519531zm32 32v-8h128v8c0 35.289062-28.710938 64-64 64s-64-28.710938-64-64zm64 80c14.574219 0 28.214844-3.984375 40-10.824219v15.070313c-5 3.769531-18.136719 11.753906-40 11.753906s-35-7.984375-40-11.753906v-15.070313c11.785156 6.839844 25.421875 10.824219 40 10.824219zm-24 43.3125 12.6875 12.6875-12.6875 12.6875zm10.289062-12.335938c4.261719.605469 8.773438 1.023438 13.710938 1.023438s9.449219-.417969 13.710938-1.023438l-13.710938 13.710938zm13.710938 36.335938 20.6875 20.6875-20.6875 20.6875-20.6875-20.6875zm24 1.375-12.6875-12.6875 12.6875-12.6875zm-73.855469-51.839844c2.261719 1.703125 5.582031 3.886719 9.855469 6.0625v68.410156l40 40 40-40v-68.410156c4.273438-2.175781 7.582031-4.359375 9.855469-6.0625l65.609375 18.75c-17.738282 25.640625-27.464844 56.347656-27.464844 87.625v44.777344h-176v-44.777344c0-31.277344-9.734375-61.984375-27.457031-87.632812zm-102.144531 59.351563c0-14.75 8.289062-28.046875 20.855469-34.96875 17.472656 23.65625 27.144531 52.519531 27.144531 81.992187v44.777344h-48zm304 0v91.800781h-48v-44.777344c0-29.472656 9.671875-58.335937 27.144531-81.992187 12.566407 6.921875 20.855469 20.226562 20.855469 34.96875zm-25.441406-54.070313-44.621094-12.746094 38.0625-38.070312 28.6875 28.6875zm57.441406-33.441406-11.3125 11.3125h-1.375l-51.3125-51.3125v-1.375l11.3125-11.3125h1.375l51.3125 51.3125zm-8-32-12.6875-12.6875 24.6875-24.6875 12.6875 12.6875zm56-40-11.3125 11.3125h-1.375l-27.3125-27.3125v-1.375l11.3125-11.3125h1.375l27.3125 27.3125zm0 0"/></svg>